<svg width="333" height="75" viewBox="0 0 333 75" fill="none" xmlns="http://www.w3.org/2000/svg">
<g clip-path="url(#clip0_5_7399)">
<path d="M331.368 1.64299H1.63208V73.357H331.368V1.64299Z" fill="#D7D4CF"/>
<path d="M11.0867 1.64299H1.63208V73.357H11.0867V1.64299Z" fill="white"/>
<path d="M331.368 1.64299H1.63208V11.1158H331.368V1.64299Z" fill="white"/>
<path d="M333 75H0V0H333V75ZM3.26415 71.714H329.736V3.28599H3.26415V71.714Z" fill="#7F7E80"/>
<path d="M318.58 60.5613H19.0843V17.2699H318.58V60.5572V60.5613ZM21.4205 58.2054H316.244V19.6258H21.4245V58.2054H21.4205Z" fill="white"/>
<path d="M316.297 17.274H269.817V58.0005H316.297V17.274Z" fill="#404040"/>
<path d="M312.853 17.274H269.817V55.3988H312.853V17.274Z" fill="#D1CCC4"/>
<path d="M312.853 17.274H310.273V55.3988H312.853V17.274Z" fill="#7F7E80"/>
<path d="M312.853 51.9325H269.817V55.3988H312.853V51.9325Z" fill="#7F7E80"/>
<path d="M272.398 17.274H269.817V55.3988H272.398V17.274Z" fill="white"/>
<path d="M312.853 17.274H269.817V19.8716H312.853V17.274Z" fill="white"/>
<path d="M302.528 28.5373H280.147V47.6017H302.528V28.5373Z" fill="#D1CCC4"/>
<path d="M285.312 25.9355H280.147V28.5332H285.312V25.9355Z" fill="#040000"/>
<path d="M287.892 28.5373H282.727V31.1349H287.892V28.5373Z" fill="#040000"/>
<path d="M291.335 31.1349H286.17V34.6012H291.335V31.1349Z" fill="#040000"/>
<path d="M293.92 34.6012H288.755V37.1989H293.92V34.6012Z" fill="#040000"/>
<path d="M304.245 25.9355H299.081V28.5332H304.245V25.9355Z" fill="#040000"/>
<path d="M301.665 28.5373H296.5V31.1349H301.665V28.5373Z" fill="#040000"/>
<path d="M298.222 31.1349H293.057V34.6012H298.222V31.1349Z" fill="#040000"/>
<path d="M295.641 34.6012H290.477V37.1989H295.641V34.6012Z" fill="#040000"/>
<path d="M304.245 43.2669H299.081V45.8645H304.245V43.2669Z" fill="#040000"/>
<path d="M301.665 40.6692H296.5V43.2669H301.665V40.6692Z" fill="#040000"/>
<path d="M298.222 37.2029H293.057V40.6692H298.222V37.2029Z" fill="#040000"/>
<path d="M295.641 34.6012H290.477V37.1989H295.641V34.6012Z" fill="#040000"/>
<path d="M285.312 43.2669H280.147V45.8645H285.312V43.2669Z" fill="#040000"/>
<path d="M287.892 40.6692H282.727V43.2669H287.892V40.6692Z" fill="#040000"/>
<path d="M291.335 37.2029H286.17V40.6692H291.335V37.2029Z" fill="#040000"/>
<path d="M293.92 34.6012H288.755V37.1989H293.92V34.6012Z" fill="#040000"/>
<path d="M37.8918 48.8186H35.2341L34.7823 35.0109L30.5129 48.8186H27.9081L27.1836 28.3529H29.6419L30.0204 42.4638L34.3956 28.3529H36.801L37.3057 42.4638L41.5548 28.3529H44.2125L37.8836 48.8186H37.8918Z" fill="#110306"/>
<path d="M52.9549 40.3865L51.799 48.8186H49.414L50.5902 40.2062C50.8792 38.006 50.2483 36.6334 49.0518 36.6334C47.6802 36.6334 46.7725 38.4649 46.2841 42.0705L45.3603 48.8227H42.9712L45.9708 26.8287H48.3599L47.2569 34.9536C47.9081 33.7613 48.7587 33.1221 49.878 33.1221C52.4258 33.1221 53.4596 36.5433 52.9508 40.3906L52.9549 40.3865Z" fill="#110306"/>
<path d="M63.2398 48.8186H60.8548L61.0013 47.782C60.2402 48.7613 59.3 49.2775 58.1442 49.2775C55.8487 49.2775 54.0212 45.9792 54.473 41.1814C54.9248 36.3548 57.1144 33.118 59.6623 33.118C61.1438 33.118 62.1409 34.003 62.6822 35.5313L62.9508 33.5769H65.3399L63.2398 48.8186ZM61.8845 41.1814C62.1572 38.3707 61.0339 36.6293 59.7518 36.6293C58.2337 36.6293 57.0575 38.4608 56.7848 41.1814C56.5162 43.9921 57.436 45.7621 58.8849 45.7621C60.171 45.7621 61.6159 43.9921 61.8845 41.1814Z" fill="#110306"/>
<path d="M69.3896 42.894C69.1372 44.7255 69.3896 45.5203 70.1303 45.5203C70.5984 45.5203 71.2496 45.2131 71.7746 44.7869L71.9008 48.2983C71.1438 48.9415 70.4193 49.2775 69.5524 49.2775C67.5459 49.2775 66.3859 47.4461 66.9679 43.1972L67.8348 36.8752H66.1702L66.622 33.5769H68.2663L68.8971 28.9634H71.2862L70.6554 33.5769H73.6183L73.1666 36.8752H70.1995L69.3855 42.894H69.3896Z" fill="#110306"/>
<path d="M77.9244 48.8186L80.0042 33.5769H82.3933L80.3135 48.8186H77.9244ZM83.2765 29.0249C83.2765 30.3687 82.6619 31.3767 81.8316 31.3767C81.0013 31.3767 80.3868 30.3687 80.3868 29.0249C80.3868 27.681 80.981 26.6116 81.8316 26.6116C82.6822 26.6116 83.2765 27.7424 83.2765 29.0249Z" fill="#110306"/>
<path d="M85.1934 43.9634C85.34 45.5203 86.3127 46.1308 87.1267 46.1308C88.0302 46.1308 88.5919 45.3687 88.5919 44.5411C88.5919 43.9921 88.3558 43.5619 87.8674 43.3201L86.097 42.3737C84.8312 41.7304 84.0172 40.325 84.0172 38.1289C84.0172 35.2281 85.4254 33.118 87.725 33.118C89.878 33.118 91.3799 34.9822 91.6851 37.3341L89.642 38.3707C89.5158 37.1497 88.8117 36.2647 87.725 36.2647C86.6383 36.2647 86.3859 37.0882 86.3859 37.793C86.3859 38.2805 86.5325 38.8296 87.3994 39.2884L88.5024 39.8703C90.0937 40.7266 90.9077 42.0705 90.9077 44.3321C90.9077 47.4788 89.1536 49.2816 86.9639 49.2816C85.0835 49.2816 83.2398 47.9664 82.8247 45.0983L85.1934 43.9675V43.9634Z" fill="#110306"/>
<path d="M100.11 42.894C99.8577 44.7255 100.11 45.5203 100.851 45.5203C101.319 45.5203 101.97 45.2131 102.495 44.7869L102.621 48.2983C101.864 48.9415 101.14 49.2775 100.273 49.2775C98.2663 49.2775 97.1063 47.4461 97.6884 43.1972L98.5553 36.8752H96.8906L97.3424 33.5769H98.9867L99.6175 28.9634H102.007L101.376 33.5769H104.339L103.887 36.8752H100.92L100.106 42.894H100.11Z" fill="#110306"/>
<path d="M114.086 40.3865L112.931 48.8186H110.546L111.722 40.2062C112.011 38.006 111.38 36.6334 110.183 36.6334C108.812 36.6334 107.904 38.4649 107.416 42.0705L106.492 48.8227H104.103L107.102 26.8287H109.491L108.388 34.9536C109.04 33.7613 109.89 33.1221 111.009 33.1221C113.557 33.1221 114.591 36.5433 114.082 40.3906L114.086 40.3865Z" fill="#110306"/>
<path d="M124.791 42.2794H117.774C117.79 44.6026 118.515 45.8235 119.907 45.8235C120.631 45.8235 121.498 45.4876 122.202 43.6561L124.335 44.5739C123.431 47.7492 121.661 49.2775 119.76 49.2775C117.192 49.2775 115.584 46.4996 115.584 42.3122C115.584 36.9653 118.205 33.118 120.936 33.118C123.667 33.118 125.364 36.6293 124.786 42.2835L124.791 42.2794ZM122.764 39.44C122.601 37.4242 121.84 36.4777 120.757 36.4777C119.528 36.4777 118.588 37.6987 118.116 39.44H122.764Z" fill="#110306"/>
<path d="M140.957 41.2141C140.505 46.0407 138.319 49.2775 135.767 49.2775C134.266 49.2775 133.272 48.3597 132.731 46.8028L132.458 48.8186H130.073L133.093 26.8246H135.482L134.416 34.6463C135.173 33.6711 136.134 33.118 137.29 33.118C139.585 33.118 141.412 36.4163 140.961 41.2141H140.957ZM138.641 41.2141C138.913 38.4034 137.99 36.6334 136.545 36.6334C135.259 36.6334 133.814 38.4034 133.545 41.2141C133.272 44.0249 134.396 45.7662 135.678 45.7662C137.196 45.7662 138.372 43.9347 138.641 41.2141Z" fill="#110306"/>
<path d="M150.684 48.8186H148.295L148.441 47.782C147.684 48.7613 146.74 49.2775 145.584 49.2775C143.289 49.2775 141.461 45.9792 141.913 41.1814C142.365 36.3548 144.555 33.118 147.102 33.118C148.584 33.118 149.581 34.003 150.122 35.5313L150.395 33.5769H152.78L150.684 48.8186ZM149.329 41.1814C149.597 38.3707 148.478 36.6293 147.192 36.6293C145.674 36.6293 144.498 38.4608 144.229 41.1814C143.956 43.9921 144.88 45.7621 146.325 45.7621C147.611 45.7621 149.056 43.9921 149.329 41.1814Z" fill="#110306"/>
<path d="M153.232 48.8186L156.252 26.8246H158.637L155.617 48.8186H153.228H153.232Z" fill="#110306"/>
<path d="M158.169 48.8186L161.189 26.8246H163.578L160.558 48.8186H158.173H158.169Z" fill="#110306"/>
<path d="M170.684 54.0098H167.99L170.175 48.3884L168.511 33.5728H170.989L172.039 43.5906L175.946 33.5728H178.551L170.684 54.0057V54.0098Z" fill="#110306"/>
<path d="M188.095 41.2141C187.644 46.0079 185.312 49.2161 182.67 49.2161C180.029 49.2161 177.859 46.0079 178.311 41.2141C178.763 36.4163 181.095 33.2122 183.789 33.2122C186.484 33.2122 188.547 36.4204 188.091 41.2141H188.095ZM185.78 41.2141C186.052 38.3748 184.913 36.6621 183.663 36.6621C182.414 36.6621 180.896 38.3707 180.627 41.2141C180.358 44.0535 181.494 45.7662 182.796 45.7662C184.099 45.7662 185.511 44.0535 185.78 41.2141Z" fill="#110306"/>
<path d="M197.513 48.8186H195.128L195.328 47.3846C194.66 48.6056 193.81 49.2775 192.67 49.2775C190.122 49.2775 189.089 45.8563 189.597 42.009L190.753 33.5769H193.142L191.966 42.1893C191.677 44.3895 192.308 45.7621 193.505 45.7621C194.88 45.7621 195.8 43.9306 196.288 40.325L197.212 33.5728H199.597L197.518 48.8145L197.513 48.8186Z" fill="#110306"/>
<path d="M211.474 42.9227L213.753 43.566C212.918 47.0486 211.022 49.2775 208.869 49.2775C206.048 49.2775 204.168 46.0079 204.62 41.2141C205.071 36.4163 207.566 33.118 210.208 33.118C212.308 33.118 213.932 35.3182 214.205 38.7394L211.746 39.5015C211.673 37.6987 210.916 36.8137 209.866 36.8137C208.364 36.8137 207.192 38.6165 206.936 41.2141C206.699 43.8405 207.55 45.5818 209.052 45.5818C210.102 45.5818 210.969 44.7255 211.474 42.9227Z" fill="#110306"/>
<path d="M224.693 40.3865L223.537 48.8186H221.148L222.324 40.2062C222.613 38.006 221.982 36.6334 220.786 36.6334C219.414 36.6334 218.507 38.4649 218.018 42.0705L217.094 48.8227H214.705L217.705 26.8287H220.094L218.991 34.9536C219.642 33.7613 220.493 33.1221 221.612 33.1221C224.16 33.1221 225.194 36.5433 224.685 40.3906L224.693 40.3865Z" fill="#110306"/>
<path d="M235.991 41.2141C235.54 46.0079 233.207 49.2161 230.566 49.2161C227.925 49.2161 225.755 46.0079 226.207 41.2141C226.659 36.4163 228.991 33.2122 231.685 33.2122C234.38 33.2122 236.439 36.4204 235.987 41.2141H235.991ZM233.676 41.2141C233.948 38.3748 232.809 36.6621 231.559 36.6621C230.31 36.6621 228.791 38.3707 228.523 41.2141C228.254 44.0535 229.39 45.7662 230.692 45.7662C231.995 45.7662 233.407 44.0535 233.676 41.2141Z" fill="#110306"/>
<path d="M238.938 43.9634C239.085 45.5203 240.057 46.1308 240.871 46.1308C241.775 46.1308 242.336 45.3687 242.336 44.5411C242.336 43.9921 242.105 43.5619 241.612 43.3201L239.842 42.3737C238.576 41.7304 237.762 40.325 237.762 38.1289C237.762 35.2281 239.17 33.118 241.466 33.118C243.619 33.118 245.12 34.9822 245.426 37.3341L243.382 38.3707C243.256 37.1497 242.552 36.2647 241.466 36.2647C240.379 36.2647 240.126 37.0882 240.126 37.793C240.126 38.2805 240.273 38.8296 241.14 39.2884L242.243 39.8703C243.834 40.7266 244.648 42.0705 244.648 44.3321C244.648 47.4788 242.894 49.2816 240.708 49.2816C238.828 49.2816 236.984 47.9664 236.569 45.0983L238.938 43.9675V43.9634Z" fill="#110306"/>
<path d="M255.377 42.2794H248.36C248.38 44.6026 249.101 45.8235 250.497 45.8235C251.217 45.8235 252.088 45.4876 252.792 43.6561L254.925 44.5739C254.021 47.7492 252.251 49.2775 250.35 49.2775C247.782 49.2775 246.175 46.4996 246.175 42.3122C246.175 36.9653 248.796 33.118 251.527 33.118C254.258 33.118 255.959 36.6293 255.377 42.2835V42.2794ZM253.35 39.44C253.187 37.4242 252.426 36.4777 251.343 36.4777C250.114 36.4777 249.174 37.6987 248.702 39.44H253.35Z" fill="#110306"/>
<path d="M261.16 40.2964L260.924 41.9435H258.739L259.39 37.1784H260.766C261.706 37.1784 263.171 36.109 263.171 34.0317C263.171 32.4133 262.394 31.4668 261.364 31.4668C260.061 31.4668 259.178 32.9951 258.869 34.9782L256.647 34.2161C256.993 30.7949 258.889 27.894 261.494 27.894C263.81 27.894 265.491 30.1844 265.491 33.667C265.491 37.4529 263.537 39.9604 261.168 40.2964H261.16ZM260.761 46.6184C260.761 47.9336 260.167 48.9415 259.333 48.9415C258.499 48.9415 257.904 47.9336 257.904 46.6184C257.904 45.3032 258.499 44.2666 259.333 44.2666C260.167 44.2666 260.761 45.3647 260.761 46.6184Z" fill="#110306"/>
</g>
<defs>
<clipPath id="clip0_5_7399">
<rect width="333" height="75" fill="white"/>
</clipPath>
</defs>
</svg>
